<?xml version="1.0" encoding="UTF-8"?>
<!DOCTYPE svg PUBLIC "-//W3C//DTD SVG 1.1//EN" "http://www.w3.org/Graphics/SVG/1.1/DTD/svg11.dtd">
<svg xmlns="http://www.w3.org/2000/svg" version="1.1" width="500px" height="500px" style="shape-rendering:geometricPrecision; text-rendering:geometricPrecision; image-rendering:optimizeQuality; fill-rule:evenodd; clip-rule:evenodd" xmlns:xlink="http://www.w3.org/1999/xlink">
<g><path style="opacity:0.966" fill="#bc1821" d="M 226.5,-0.5 C 238.5,-0.5 250.5,-0.5 262.5,-0.5C 262.779,4.59467 262.445,9.59467 261.5,14.5C 246.447,12.9393 231.447,13.2726 216.5,15.5C 217.441,10.9296 217.774,6.26296 217.5,1.5C 220.5,0.833333 223.5,0.166667 226.5,-0.5 Z"/></g>
<g><path style="opacity:0.965" fill="#af1720" d="M 217.5,1.5 C 217.774,6.26296 217.441,10.9296 216.5,15.5C 200.1,17.9332 184.1,21.9332 168.5,27.5C 168.5,22.5 168.5,17.5 168.5,12.5C 184.368,6.7832 200.701,3.11654 217.5,1.5 Z"/></g>
<g><path style="opacity:0.902" fill="#c91922" d="M 262.5,-0.5 C 265.167,-0.5 267.833,-0.5 270.5,-0.5C 284.216,1.39983 297.883,4.0665 311.5,7.5C 311.95,12.962 312.617,18.6286 313.5,24.5C 296.642,18.801 279.309,15.4677 261.5,14.5C 262.445,9.59467 262.779,4.59467 262.5,-0.5 Z"/></g>
<g><path style="opacity:0.92" fill="#d51a23" d="M 311.5,7.5 C 327.444,11.5914 342.777,17.2581 357.5,24.5C 357.209,30.923 357.542,37.2564 358.5,43.5C 344.107,35.8056 329.107,29.4722 313.5,24.5C 312.617,18.6286 311.95,12.962 311.5,7.5 Z"/></g>
<g><path style="opacity:0.957" fill="#a1161f" d="M 168.5,12.5 C 168.5,17.5 168.5,22.5 168.5,27.5C 152.33,33.585 136.997,41.2516 122.5,50.5C 122.779,45.4053 122.445,40.4053 121.5,35.5C 136.18,25.994 151.847,18.3273 168.5,12.5 Z"/></g>
<g><path style="opacity:0.937" fill="#e21b24" d="M 357.5,24.5 C 376.085,33.6139 393.085,44.9472 408.5,58.5C 407.275,59.1522 406.608,60.3189 406.5,62C 406.559,63.4357 406.892,64.769 407.5,66C 406.858,70.6007 406.191,75.1007 405.5,79.5C 390.948,65.9361 375.282,53.9361 358.5,43.5C 357.542,37.2564 357.209,30.923 357.5,24.5 Z"/></g>
<g><path style="opacity:0.963" fill="#95151e" d="M 121.5,35.5 C 122.445,40.4053 122.779,45.4053 122.5,50.5C 104.41,62.3891 88.0768,76.3891 73.5,92.5C 73.8222,86.642 73.4889,80.9753 72.5,75.5C 87.0668,59.9264 103.4,46.5931 121.5,35.5 Z"/></g>
<g><path style="opacity:0.953" fill="#ee1c25" d="M 408.5,58.5 C 426.067,72.3909 440.733,88.7243 452.5,107.5C 453.427,119.549 453.094,131.549 451.5,143.5C 441.431,124.367 429.597,106.367 416,89.5C 411.999,86.6649 408.499,83.3316 405.5,79.5C 406.191,75.1007 406.858,70.6007 407.5,66C 406.892,64.769 406.559,63.4357 406.5,62C 406.608,60.3189 407.275,59.1522 408.5,58.5 Z"/></g>
<g><path style="opacity:0.923" fill="#88151d" d="M 72.5,75.5 C 73.4889,80.9753 73.8222,86.642 73.5,92.5C 53.8976,115.687 38.8976,141.687 28.5,170.5C 26.0087,166.927 26.342,163.761 29.5,161C 28.267,159.302 27.6004,157.302 27.5,155C 28.5922,150.873 28.5922,147.04 27.5,143.5C 38.5475,118.138 53.5475,95.471 72.5,75.5 Z"/></g>
<g><path style="opacity:0.944" fill="#f61d26" d="M 452.5,107.5 C 462.199,119.552 469.865,132.885 475.5,147.5C 475.817,156.418 475.484,165.251 474.5,174C 475.167,174.667 475.833,175.333 476.5,176C 475.173,223.137 475.173,270.304 476.5,317.5C 473.003,330.153 468.67,342.487 463.5,354.5C 462.662,354.842 462.328,355.508 462.5,356.5C 461.662,356.842 461.328,357.508 461.5,358.5C 460.662,358.842 460.328,359.508 460.5,360.5C 459.662,360.842 459.328,361.508 459.5,362.5C 458.662,362.842 458.328,363.508 458.5,364.5C 456.75,365.659 455.75,367.326 455.5,369.5C 454.662,369.842 454.328,370.508 454.5,371.5C 453.094,371.973 452.427,372.973 452.5,374.5C 451.662,374.842 451.328,375.508 451.5,376.5C 450.094,376.973 449.427,377.973 449.5,379.5C 448.662,379.842 448.328,380.508 448.5,381.5C 447.833,381.5 447.5,381.833 447.5,382.5C 446.662,382.842 446.328,383.508 446.5,384.5C 445.833,384.5 445.5,384.833 445.5,385.5C 444.662,385.842 444.328,386.508 444.5,387.5C 443.833,387.5 443.5,387.833 443.5,388.5C 442.662,388.842 442.328,389.508 442.5,390.5C 441.833,390.5 441.5,390.833 441.5,391.5C 440.833,391.5 440.5,391.833 440.5,392.5C 439.662,392.842 439.328,393.508 439.5,394.5C 438.833,394.5 438.5,394.833 438.5,395.5C 435.5,398.833 432.5,402.167 429.5,405.5C 429.666,401.486 429.499,397.486 429,393.5C 428.487,394.527 427.987,395.527 427.5,396.5C 426.833,396.5 426.5,396.833 426.5,397.5C 425.833,397.5 425.5,397.833 425.5,398.5C 419.131,405.036 412.298,411.036 405,416.5C 404.667,415.833 404.333,415.167 404,414.5C 397.591,421.268 390.424,426.935 382.5,431.5C 463.675,362.88 490.509,276.88 463,173.5C 460.034,163.09 456.2,153.09 451.5,143.5C 453.094,131.549 453.427,119.549 452.5,107.5 Z"/></g>
<g><path style="opacity:0.699" fill="#fbb140" d="M 187.5,110.5 C 185.9,111.682 185.567,113.015 186.5,114.5C 184.589,115.477 182.589,116.143 180.5,116.5C 178.599,116.246 177.933,116.58 178.5,117.5C 178.5,117.833 178.5,118.167 178.5,118.5C 179.117,118.611 179.617,118.944 180,119.5C 180.498,122.482 180.665,125.482 180.5,128.5C 178.599,128.246 177.933,128.58 178.5,129.5C 178.5,141.5 178.5,153.5 178.5,165.5C 180.74,166.264 183.073,167.098 185.5,168C 185.966,169.299 185.966,170.799 185.5,172.5C 181.098,172.772 176.765,172.439 172.5,171.5C 171.334,151.842 171.167,132.175 172,112.5C 176.858,110.586 182.025,109.919 187.5,110.5 Z M 178.5,121.5 C 179.773,122.077 179.773,122.743 178.5,123.5C 177.537,123.03 177.537,122.363 178.5,121.5 Z"/></g>
<g><path style="opacity:0.953" fill="#f8e934" d="M 224.5,110.5 C 230.509,110.334 236.509,110.501 242.5,111C 243,111.5 243.5,112 244,112.5C 244.833,132.175 244.666,151.842 243.5,171.5C 237.896,172.454 232.229,172.788 226.5,172.5C 227.609,171.71 228.942,171.21 230.5,171C 229.061,170.009 228.061,168.676 227.5,167C 231.025,166.821 234.359,166.321 237.5,165.5C 237.5,153.5 237.5,141.5 237.5,129.5C 235.5,129.5 233.5,129.5 231.5,129.5C 228.636,128.242 227.97,126.242 229.5,123.5C 232.167,123.5 234.833,123.5 237.5,123.5C 237.5,121.167 237.5,118.833 237.5,116.5C 232.833,116.5 228.167,116.5 223.5,116.5C 222.222,115.251 221.222,113.751 220.5,112C 222.366,113.008 223.699,112.508 224.5,110.5 Z"/></g>
<g><path style="opacity:0.878" fill="#fac33a" d="M 187.5,110.5 C 193.833,110.5 200.167,110.5 206.5,110.5C 209.002,112.39 209.002,114.39 206.5,116.5C 204.833,116.5 203.167,116.5 201.5,116.5C 200.417,116.461 199.417,116.127 198.5,115.5C 197.167,118.5 197.167,121.5 198.5,124.5C 200.071,125.975 201.405,127.642 202.5,129.5C 194.5,129.5 186.5,129.5 178.5,129.5C 177.933,128.58 178.599,128.246 180.5,128.5C 180.665,125.482 180.498,122.482 180,119.5C 179.617,118.944 179.117,118.611 178.5,118.5C 178.5,118.167 178.5,117.833 178.5,117.5C 179.492,117.672 180.158,117.338 180.5,116.5C 182.589,116.143 184.589,115.477 186.5,114.5C 185.567,113.015 185.9,111.682 187.5,110.5 Z M 187.5,117.5 C 189.628,116.371 191.961,116.204 194.5,117C 192.213,118.427 191.88,120.261 193.5,122.5C 191.5,123.833 189.5,123.833 187.5,122.5C 188.735,120.684 188.735,119.017 187.5,117.5 Z"/></g>
<g><path style="opacity:0.905" fill="#fad237" d="M 206.5,110.5 C 212.5,110.5 218.5,110.5 224.5,110.5C 223.699,112.508 222.366,113.008 220.5,112C 221.222,113.751 222.222,115.251 223.5,116.5C 220.813,116.336 218.146,116.503 215.5,117C 217.276,118.671 217.61,120.504 216.5,122.5C 220.783,123.492 225.116,123.826 229.5,123.5C 227.97,126.242 228.636,128.242 231.5,129.5C 221.833,129.5 212.167,129.5 202.5,129.5C 201.405,127.642 200.071,125.975 198.5,124.5C 197.167,121.5 197.167,118.5 198.5,115.5C 199.417,116.127 200.417,116.461 201.5,116.5C 202.369,118.717 202.702,121.05 202.5,123.5C 204.288,123.785 205.955,123.452 207.5,122.5C 206.39,120.504 206.724,118.671 208.5,117C 207.906,116.536 207.239,116.369 206.5,116.5C 209.002,114.39 209.002,112.39 206.5,110.5 Z M 201.5,116.5 C 203.167,116.5 204.833,116.5 206.5,116.5C 207.239,116.369 207.906,116.536 208.5,117C 206.724,118.671 206.39,120.504 207.5,122.5C 205.955,123.452 204.288,123.785 202.5,123.5C 202.702,121.05 202.369,118.717 201.5,116.5 Z"/></g>
<g><path style="opacity:0.681" fill="#f7e632" d="M 277.5,134.5 C 280.167,134.5 282.833,134.5 285.5,134.5C 285.168,143.857 285.502,153.19 286.5,162.5C 289.242,160.97 291.242,161.636 292.5,164.5C 290.891,167.777 288.558,170.444 285.5,172.5C 285.5,171.167 285.5,169.833 285.5,168.5C 284.022,168.762 282.689,168.429 281.5,167.5C 281.058,166.261 280.391,165.261 279.5,164.5C 279.5,163.833 279.5,163.167 279.5,162.5C 279.825,154.981 279.492,147.648 278.5,140.5C 277.821,138.412 277.488,136.412 277.5,134.5 Z"/></g>
<g><path style="opacity:0.941" fill="#f9ba3d" d="M 258.5,134.5 C 258.245,135.936 257.912,137.436 257.5,139C 259.058,139.21 260.391,139.71 261.5,140.5C 256.489,140.666 251.489,140.499 246.5,140C 245.594,138.301 245.261,136.467 245.5,134.5C 249.833,134.5 254.167,134.5 258.5,134.5 Z"/></g>
<g><path style="opacity:0.951" fill="#f8d337" d="M 258.5,134.5 C 264.833,134.5 271.167,134.5 277.5,134.5C 277.488,136.412 277.821,138.412 278.5,140.5C 272.833,140.5 267.167,140.5 261.5,140.5C 260.391,139.71 259.058,139.21 257.5,139C 257.912,137.436 258.245,135.936 258.5,134.5 Z"/></g>
<g><path style="opacity:0.74" fill="#f9d138" d="M 206.5,159.5 C 204.803,157.695 203.97,155.361 204,152.5C 203.098,154.431 201.931,156.097 200.5,157.5C 198.539,156.54 196.873,155.207 195.5,153.5C 196.479,150.375 196.813,147.042 196.5,143.5C 197.714,141.851 199.047,140.185 200.5,138.5C 202.749,139.989 203.582,141.989 203,144.5C 198.271,147.661 198.438,149.994 203.5,151.5C 205.657,145.864 207.657,140.197 209.5,134.5C 211.167,134.5 212.833,134.5 214.5,134.5C 214.357,136.262 214.691,137.929 215.5,139.5C 226.498,147.637 225.498,153.47 212.5,157C 211.978,156.439 211.645,155.772 211.5,155C 212.939,152.775 214.606,150.775 216.5,149C 215.318,147.321 213.985,145.821 212.5,144.5C 210.95,149.722 208.95,154.722 206.5,159.5 Z"/></g>
<g><path style="opacity:0.771" fill="#80131c" d="M 27.5,143.5 C 28.5922,147.04 28.5922,150.873 27.5,155C 27.6004,157.302 28.267,159.302 29.5,161C 26.342,163.761 26.0087,166.927 28.5,170.5C 18.9669,200.728 14.1335,231.728 14,263.5C 13.6667,250.5 13.3333,237.5 13,224.5C 12.1525,234.518 11.1525,244.518 10,254.5C 7.23524,230.358 9.4019,206.525 16.5,183C 15.8333,181 15.1667,181 14.5,183C 6.38574,211.249 2.88574,240.082 4,269.5C 0.873419,225.309 8.70675,183.309 27.5,143.5 Z"/></g>
<g><path style="opacity:0.827" fill="#faba3b" d="M 196.5,143.5 C 196.813,147.042 196.479,150.375 195.5,153.5C 192.67,151.638 191.837,148.971 193,145.5C 194.113,144.695 195.279,144.028 196.5,143.5 Z"/></g>
<g><path style="opacity:0.878" fill="#fb1d26" d="M 475.5,147.5 C 496.436,198.873 501.269,251.873 490,306.5C 483.248,337.318 471.082,365.651 453.5,391.5C 451.183,388.654 451.517,386.487 454.5,385C 453.033,383.902 452.199,382.402 452,380.5C 451.329,381.252 450.496,381.586 449.5,381.5C 449.5,380.833 449.5,380.167 449.5,379.5C 450.906,379.027 451.573,378.027 451.5,376.5C 452.338,376.158 452.672,375.492 452.5,374.5C 453.906,374.027 454.573,373.027 454.5,371.5C 455.338,371.158 455.672,370.492 455.5,369.5C 457.25,368.341 458.25,366.674 458.5,364.5C 459.338,364.158 459.672,363.492 459.5,362.5C 460.338,362.158 460.672,361.492 460.5,360.5C 461.338,360.158 461.672,359.492 461.5,358.5C 462.338,358.158 462.672,357.492 462.5,356.5C 463.338,356.158 463.672,355.492 463.5,354.5C 474.772,333.182 481.939,310.515 485,286.5C 484.667,286.833 484.333,287.167 484,287.5C 482.411,297.855 479.911,307.855 476.5,317.5C 475.173,270.304 475.173,223.137 476.5,176C 475.833,175.333 475.167,174.667 474.5,174C 475.484,165.251 475.817,156.418 475.5,147.5 Z"/></g>
<g><path style="opacity:0.804" fill="#fbb13b" d="M 206.5,159.5 C 205.796,161.344 204.463,161.844 202.5,161C 201.027,160.29 200.36,159.124 200.5,157.5C 201.931,156.097 203.098,154.431 204,152.5C 203.97,155.361 204.803,157.695 206.5,159.5 Z"/></g>
<g><path style="opacity:0.894" fill="#fbb73d" d="M 279.5,162.5 C 279.5,163.167 279.5,163.833 279.5,164.5C 279.795,166.735 279.461,168.735 278.5,170.5C 274.697,168.645 273.697,165.812 275.5,162C 276.819,161.805 278.153,161.972 279.5,162.5 Z"/></g>
<g><path style="opacity:0.454" fill="#f9d837" d="M 214.5,165.5 C 222.167,165.5 229.833,165.5 237.5,165.5C 234.359,166.321 231.025,166.821 227.5,167C 228.061,168.676 229.061,170.009 230.5,171C 228.942,171.21 227.609,171.71 226.5,172.5C 219.5,172.5 212.5,172.5 205.5,172.5C 206.609,171.71 207.942,171.21 209.5,171C 208.549,170.282 208.383,169.449 209,168.5C 211.326,168.12 213.159,167.12 214.5,165.5 Z"/></g>
<g><path style="opacity:0.761" fill="#f9c53b" d="M 178.5,165.5 C 190.5,165.5 202.5,165.5 214.5,165.5C 213.159,167.12 211.326,168.12 209,168.5C 208.383,169.449 208.549,170.282 209.5,171C 207.942,171.21 206.609,171.71 205.5,172.5C 198.833,172.5 192.167,172.5 185.5,172.5C 185.966,170.799 185.966,169.299 185.5,168C 183.073,167.098 180.74,166.264 178.5,165.5 Z"/></g>
<g><path style="opacity:0.805" fill="#facc39" d="M 279.5,164.5 C 280.391,165.261 281.058,166.261 281.5,167.5C 282.689,168.429 284.022,168.762 285.5,168.5C 285.5,169.833 285.5,171.167 285.5,172.5C 286.183,174.176 287.517,174.843 289.5,174.5C 289.5,177.167 289.5,179.833 289.5,182.5C 292.108,182.4 294.442,183.067 296.5,184.5C 295.933,186.698 295.933,189.031 296.5,191.5C 293.213,189.433 289.546,188.099 285.5,187.5C 283.933,185.104 283.1,182.437 283,179.5C 282.814,181.9 282.314,184.234 281.5,186.5C 278.613,188.291 275.613,189.624 272.5,190.5C 270.259,189.7 269.259,188.034 269.5,185.5C 274.625,184.296 276.958,180.963 276.5,175.5C 277.795,174.902 279.128,174.402 280.5,174C 279.695,172.887 279.028,171.721 278.5,170.5C 279.461,168.735 279.795,166.735 279.5,164.5 Z"/></g>
<g><path style="opacity:1" fill="#f7db35" d="M 208.5,175.5 C 211.295,178.131 213.961,180.964 216.5,184C 214.782,186.713 212.448,187.213 209.5,185.5C 208.651,182.965 207.651,180.465 206.5,178C 206.639,176.699 207.305,175.866 208.5,175.5 Z"/></g>
<g><path style="opacity:0.814" fill="#fab83c" d="M 269.5,185.5 C 269.259,188.034 270.259,189.7 272.5,190.5C 271.488,191.686 269.654,192.686 267,193.5C 264.918,192.539 263.085,191.206 261.5,189.5C 260.692,189.808 260.025,190.308 259.5,191C 262.291,192.119 263.957,194.119 264.5,197C 262.393,201.831 260.393,206.664 258.5,211.5C 256.234,212.314 253.9,212.814 251.5,213C 256.045,212.68 259.211,214.513 261,218.5C 261.688,222.209 263.188,225.543 265.5,228.5C 265.136,231.032 263.803,232.865 261.5,234C 262.126,234.75 262.626,235.584 263,236.5C 264.191,233.466 266.358,231.799 269.5,231.5C 268.562,233.91 268.562,236.244 269.5,238.5C 267.461,240.377 265.294,242.044 263,243.5C 260.073,241.58 257.406,239.247 255,236.5C 254.202,234.741 254.369,233.074 255.5,231.5C 256.833,230.833 257.833,229.833 258.5,228.5C 256.506,226.184 255.506,223.518 255.5,220.5C 252.119,220.54 248.786,220.207 245.5,219.5C 245.334,215.486 245.501,211.486 246,207.5C 248.719,206.556 251.552,206.223 254.5,206.5C 254.506,203.15 255.506,200.15 257.5,197.5C 256.5,195.833 255.167,194.5 253.5,193.5C 252.167,191.833 252.167,190.167 253.5,188.5C 255.909,186.082 258.576,184.082 261.5,182.5C 263.747,183.406 265.747,184.739 267.5,186.5C 268.183,186.137 268.85,185.804 269.5,185.5 Z"/></g>
<g><path style="opacity:0.462" fill="#fbb83e" d="M 208.5,175.5 C 207.305,175.866 206.639,176.699 206.5,178C 207.651,180.465 208.651,182.965 209.5,185.5C 209.5,193.5 209.5,201.5 209.5,209.5C 214.167,209.5 218.833,209.5 223.5,209.5C 224.067,211.03 224.733,212.53 225.5,214C 229.688,214.176 233.688,214.676 237.5,215.5C 226.48,215.832 215.48,215.499 204.5,214.5C 203.692,204.88 203.192,195.214 203,185.5C 201.301,186.406 199.467,186.739 197.5,186.5C 197.238,185.022 197.571,183.689 198.5,182.5C 199.917,180.393 201.417,178.393 203,176.5C 204.79,174.709 206.623,174.375 208.5,175.5 Z"/></g>
<g><path style="opacity:0.77" fill="#f8e234" d="M 283.5,192.5 C 292.73,192.701 299.23,197.034 303,205.5C 305.548,215 303.048,222.666 295.5,228.5C 293.696,229.768 291.696,230.435 289.5,230.5C 288.539,228.735 288.205,226.735 288.5,224.5C 296.328,221.596 299.161,215.929 297,207.5C 294.752,201.08 290.252,198.08 283.5,198.5C 283.5,196.5 283.5,194.5 283.5,192.5 Z"/></g>
<g><path style="opacity:0.975" fill="#f9dc35" d="M 223.5,209.5 C 230.5,209.5 237.5,209.5 244.5,209.5C 245.265,214.906 242.931,216.906 237.5,215.5C 233.688,214.676 229.688,214.176 225.5,214C 224.733,212.53 224.067,211.03 223.5,209.5 Z"/></g>
<g><path style="opacity:0.768" fill="#fab63d" d="M 283.5,192.5 C 283.5,194.5 283.5,196.5 283.5,198.5C 275.262,199.405 270.595,204.071 269.5,212.5C 270.841,215.9 272.174,219.233 273.5,222.5C 272.699,224.042 272.366,225.708 272.5,227.5C 268.706,225.198 266.206,221.864 265,217.5C 262.977,206.952 266.144,199.286 274.5,194.5C 277.327,193.068 280.327,192.401 283.5,192.5 Z"/></g>
<g><path style="opacity:0.765" fill="#f8e332" d="M 301.5,237.5 C 300.637,235.579 299.971,233.579 299.5,231.5C 299.735,230.903 300.235,230.57 301,230.5C 303.267,231.271 305.1,232.604 306.5,234.5C 306.833,234.167 307.167,233.833 307.5,233.5C 305.768,231.504 304.434,229.338 303.5,227C 306.143,222.977 307.809,218.477 308.5,213.5C 318.863,211.885 318.53,210.552 307.5,209.5C 307.196,206.478 306.696,203.478 306,200.5C 301.23,196.633 301.396,192.967 306.5,189.5C 306.167,189.167 305.833,188.833 305.5,188.5C 303.299,192.108 300.299,193.108 296.5,191.5C 295.933,189.031 295.933,186.698 296.5,184.5C 297.15,184.804 297.817,185.137 298.5,185.5C 300.309,183.512 302.476,182.178 305,181.5C 308.974,182.974 311.807,185.641 313.5,189.5C 312.523,191.843 311.19,194.01 309.5,196C 311.355,198.045 312.689,200.379 313.5,203C 315.9,203.186 318.234,203.686 320.5,204.5C 321.439,208.765 321.772,213.098 321.5,217.5C 318.833,217.5 316.167,217.5 313.5,217.5C 313.873,220.982 312.873,223.982 310.5,226.5C 311.137,228.303 312.303,229.636 314,230.5C 314.232,235.808 311.732,239.474 306.5,241.5C 303.923,241.253 302.257,239.919 301.5,237.5 Z"/></g>
<g><path style="opacity:0.822" fill="#f9ca39" d="M 273.5,222.5 C 276.893,223.94 280.393,225.273 284,226.5C 285.787,226.241 287.287,225.575 288.5,224.5C 288.205,226.735 288.539,228.735 289.5,230.5C 286.024,231.643 282.358,231.81 278.5,231C 275.848,230.647 273.848,229.48 272.5,227.5C 272.366,225.708 272.699,224.042 273.5,222.5 Z"/></g>
<g><path style="opacity:0.557" fill="#f8d037" d="M 269.5,231.5 C 273.509,233.831 277.843,235.664 282.5,237C 283.98,246.891 285.313,246.725 286.5,236.5C 291.038,235.286 295.371,233.619 299.5,231.5C 299.971,233.579 300.637,235.579 301.5,237.5C 298.655,239.023 295.655,240.023 292.5,240.5C 292.813,243.247 292.48,245.914 291.5,248.5C 287.498,250.742 283.331,251.075 279,249.5C 278.503,246.854 278.336,244.187 278.5,241.5C 275.146,241.253 272.146,240.253 269.5,238.5C 268.562,236.244 268.562,233.91 269.5,231.5 Z"/></g>
<g><path style="opacity:0.031" fill="#801319" d="M 6.5,275.5 C 5.38705,274.054 5.22039,272.387 6,270.5C 6.49351,272.134 6.66018,273.801 6.5,275.5 Z"/></g>
<g><path style="opacity:0.059" fill="#78161f" d="M 6.5,275.5 C 7.872,279.623 8.372,283.957 8,288.5C 6.92456,284.23 6.42456,279.897 6.5,275.5 Z"/></g>
<g><path style="opacity:0.698" fill="#000000" d="M 146.5,297.5 C 154.919,297.419 159.252,301.585 159.5,310C 159.585,318.578 155.418,323.411 147,324.5C 139.88,323.45 136.38,319.283 136.5,312C 136.281,304.576 139.614,299.742 146.5,297.5 Z M 145.5,303.5 C 148.547,302.855 150.713,303.855 152,306.5C 152.667,309.833 152.667,313.167 152,316.5C 148.155,320.675 145.155,320.008 143,314.5C 141.946,310.345 142.78,306.678 145.5,303.5 Z"/></g>
<g><path style="opacity:0.698" fill="#000000" d="M 170.5,297.5 C 178.919,297.419 183.252,301.585 183.5,310C 183.585,318.578 179.418,323.411 171,324.5C 163.88,323.45 160.38,319.283 160.5,312C 160.281,304.576 163.614,299.742 170.5,297.5 Z M 169.5,303.5 C 172.547,302.855 174.713,303.855 176,306.5C 176.667,309.833 176.667,313.167 176,316.5C 172.155,320.675 169.155,320.008 167,314.5C 165.946,310.345 166.78,306.678 169.5,303.5 Z"/></g>
<g><path style="opacity:0.672" fill="#000000" d="M 192.5,297.5 C 195.48,297.62 198.313,298.287 201,299.5C 203.381,298.565 205.881,298.232 208.5,298.5C 209.472,304.192 210.639,309.859 212,315.5C 214.275,310.411 215.942,305.078 217,299.5C 219.139,298.231 221.305,298.231 223.5,299.5C 220.757,307.395 218.423,315.395 216.5,323.5C 213.455,323.508 210.455,323.841 207.5,324.5C 206.415,316.49 204.249,308.823 201,301.5C 200.417,303.002 199.584,304.335 198.5,305.5C 195.979,304.215 193.313,303.548 190.5,303.5C 190.281,304.675 190.614,305.675 191.5,306.5C 195.089,307.875 198.256,309.875 201,312.5C 201.691,321.473 197.524,325.306 188.5,324C 182.765,322.301 182.098,319.468 186.5,315.5C 188.226,317.03 190.226,318.03 192.5,318.5C 194,318.547 195,317.881 195.5,316.5C 193.268,314.355 190.601,312.855 187.5,312C 182.71,305.062 184.376,300.229 192.5,297.5 Z"/></g>
<g><path style="opacity:0.667" fill="#000000" d="M 302.5,297.5 C 306.384,297.024 309.717,298.024 312.5,300.5C 312.047,302.565 311.047,304.232 309.5,305.5C 305.603,302.518 302.103,302.852 299,306.5C 298.163,310.295 298.496,313.961 300,317.5C 301.789,319.229 303.956,319.896 306.5,319.5C 306.5,317.833 306.5,316.167 306.5,314.5C 304.712,314.785 303.045,314.452 301.5,313.5C 302.246,312.264 302.579,310.93 302.5,309.5C 305.833,309.5 309.167,309.5 312.5,309.5C 312.8,314.099 312.467,318.599 311.5,323C 295.861,327.027 289.695,321.193 293,305.5C 295.161,301.495 298.328,298.829 302.5,297.5 Z"/></g>
<g><path style="opacity:0.687" fill="#000000" d="M 345.5,297.5 C 353.891,297.39 358.224,301.557 358.5,310C 357.707,321.813 351.707,326.147 340.5,323C 334.819,316.876 333.986,310.042 338,302.5C 340.17,300.177 342.67,298.51 345.5,297.5 Z M 344.5,303.5 C 346.199,303.34 347.866,303.506 349.5,304C 352.619,308.358 352.952,312.858 350.5,317.5C 347.658,320.283 345.158,319.95 343,316.5C 340.839,311.82 341.339,307.486 344.5,303.5 Z"/></g>
<g><path style="opacity:0.701" fill="#000000" d="M 101.5,298.5 C 106.179,298.334 110.845,298.501 115.5,299C 119.105,302.315 119.439,305.982 116.5,310C 120.689,314.678 120.356,319.011 115.5,323C 111.008,324.669 106.508,324.835 102,323.5C 102.033,315.236 101.866,306.903 101.5,298.5 Z M 107.5,302.5 C 111.225,302.537 112.558,304.204 111.5,307.5C 110.311,308.429 108.978,308.762 107.5,308.5C 107.5,306.5 107.5,304.5 107.5,302.5 Z M 107.5,313.5 C 112.667,312.492 114.334,314.325 112.5,319C 110.866,319.494 109.199,319.66 107.5,319.5C 107.5,317.5 107.5,315.5 107.5,313.5 Z"/></g>
<g><path style="opacity:0.688" fill="#000000" d="M 122.5,298.5 C 124.833,298.5 127.167,298.5 129.5,298.5C 128.911,305.485 128.578,312.485 128.5,319.5C 130.92,319.708 133.253,319.374 135.5,318.5C 136.452,320.045 136.785,321.712 136.5,323.5C 131.833,323.5 127.167,323.5 122.5,323.5C 123.033,315.228 123.033,306.894 122.5,298.5 Z"/></g>
<g><path style="opacity:0.751" fill="#000000" d="M 225.5,298.5 C 230.5,298.5 235.5,298.5 240.5,298.5C 240.5,299.833 240.5,301.167 240.5,302.5C 237.5,302.5 234.5,302.5 231.5,302.5C 231.5,304.5 231.5,306.5 231.5,308.5C 233.833,308.5 236.167,308.5 238.5,308.5C 238.5,310.167 238.5,311.833 238.5,313.5C 236.167,313.5 233.833,313.5 231.5,313.5C 231.5,315.5 231.5,317.5 231.5,319.5C 234.5,319.5 237.5,319.5 240.5,319.5C 240.5,320.833 240.5,322.167 240.5,323.5C 235.5,323.5 230.5,323.5 225.5,323.5C 225.5,315.167 225.5,306.833 225.5,298.5 Z"/></g>
<g><path style="opacity:0.704" fill="#000000" d="M 242.5,298.5 C 247.179,298.334 251.845,298.501 256.5,299C 259.394,301.909 260.227,305.409 259,309.5C 258.5,311.333 257.333,312.5 255.5,313C 257.694,315.695 259.694,318.528 261.5,321.5C 259.999,322.752 258.332,323.752 256.5,324.5C 254.154,321.129 251.821,317.796 249.5,314.5C 249.258,317.319 249.258,320.319 249.5,323.5C 247.143,323.663 244.81,323.497 242.5,323C 243.791,314.864 243.791,306.697 242.5,298.5 Z M 249.5,302.5 C 252.857,303.121 254.024,305.121 253,308.5C 251.915,309.293 250.748,309.96 249.5,310.5C 249.324,308.114 249.324,305.448 249.5,302.5 Z"/></g>
<g><path style="opacity:0.703" fill="#000000" d="M 263.5,298.5 C 268.844,298.334 274.177,298.501 279.5,299C 281.286,299.785 282.786,300.951 284,302.5C 287.811,320.022 280.978,326.856 263.5,323C 264.791,314.864 264.791,306.697 263.5,298.5 Z M 270.5,302.5 C 276.216,302.416 279.216,305.249 279.5,311C 279.216,316.786 276.216,319.619 270.5,319.5C 270.5,313.833 270.5,308.167 270.5,302.5 Z"/></g>
<g><path style="opacity:0.7" fill="#000000" d="M 316.5,298.5 C 320.846,298.334 325.179,298.501 329.5,299C 334.843,304.019 334.509,308.686 328.5,313C 330.869,315.57 332.869,318.404 334.5,321.5C 333.126,322.711 331.626,323.711 330,324.5C 327.304,321.462 324.97,318.129 323,314.5C 322.502,317.482 322.335,320.482 322.5,323.5C 320.5,323.5 318.5,323.5 316.5,323.5C 316.5,315.167 316.5,306.833 316.5,298.5 Z M 322.5,302.5 C 325.857,303.121 327.024,305.121 326,308.5C 325,309.167 324,309.833 323,310.5C 322.503,307.854 322.336,305.187 322.5,302.5 Z"/></g>
<g><path style="opacity:0.68" fill="#000000" d="M 360.5,298.5 C 362.833,298.5 365.167,298.5 367.5,298.5C 366.668,304.484 366.501,310.484 367,316.5C 369.382,320.466 371.715,320.466 374,316.5C 374.499,310.509 374.666,304.509 374.5,298.5C 376.5,298.5 378.5,298.5 380.5,298.5C 380.666,304.842 380.5,311.175 380,317.5C 375.387,324.937 369.387,326.27 362,321.5C 360.604,313.92 360.104,306.253 360.5,298.5 Z"/></g>
<g><path style="opacity:0.711" fill="#000000" d="M 384.5,298.5 C 388.846,298.334 393.179,298.501 397.5,299C 402.992,304.259 402.659,309.259 396.5,314C 394.527,314.495 392.527,314.662 390.5,314.5C 390.5,317.5 390.5,320.5 390.5,323.5C 388.5,323.5 386.5,323.5 384.5,323.5C 384.5,315.167 384.5,306.833 384.5,298.5 Z M 390.5,302.5 C 395.305,303.599 396.305,306.099 393.5,310C 392.552,310.483 391.552,310.649 390.5,310.5C 390.5,307.833 390.5,305.167 390.5,302.5 Z"/></g>
<g><path style="opacity:0.047" fill="#a81412" d="M 24.5,345.5 C 23.475,345.103 23.3083,344.437 24,343.5C 24.4643,344.094 24.631,344.761 24.5,345.5 Z"/></g>
<g><path style="opacity:0.473" fill="#000000" d="M 155.5,373.5 C 151.969,370.791 151.636,367.624 154.5,364C 159.67,363.701 164.67,363.701 169.5,364C 170.406,365.699 170.739,367.533 170.5,369.5C 166.363,367.935 162.029,367.435 157.5,368C 161.784,369.357 166.118,370.523 170.5,371.5C 171.987,375.505 170.654,378.338 166.5,380C 161.798,380.828 157.131,380.662 152.5,379.5C 151.652,377.591 151.318,375.591 151.5,373.5C 152.833,373.5 154.167,373.5 155.5,373.5 Z M 155.5,373.5 C 158.874,373.674 162.207,374.174 165.5,375C 161.818,377.031 158.484,376.531 155.5,373.5 Z"/></g>
<g><path style="opacity:0.474" fill="#000000" d="M 177.5,363.5 C 182.267,363.191 186.934,363.691 191.5,365C 196.078,374.348 193.245,379.515 183,380.5C 173.933,379.696 170.933,375.029 174,366.5C 175.145,365.364 176.312,364.364 177.5,363.5 Z M 180.5,367.5 C 184.271,366.774 186.937,368.107 188.5,371.5C 186.211,376.91 183.045,377.577 179,373.5C 178.252,371.16 178.752,369.16 180.5,367.5 Z"/></g>
<g><path style="opacity:0.484" fill="#000000" d="M 195.5,363.5 C 201.509,363.334 207.509,363.501 213.5,364C 215.192,365.401 215.859,367.234 215.5,369.5C 211.64,368.356 207.64,367.689 203.5,367.5C 203.5,368.5 203.5,369.5 203.5,370.5C 205.833,370.5 208.167,370.5 210.5,370.5C 210.5,371.5 210.5,372.5 210.5,373.5C 208.167,373.5 205.833,373.5 203.5,373.5C 203.5,374.5 203.5,375.5 203.5,376.5C 205.167,376.5 206.833,376.5 208.5,376.5C 208.5,377.833 208.5,379.167 208.5,380.5C 204.167,380.5 199.833,380.5 195.5,380.5C 195.5,379.167 195.5,377.833 195.5,376.5C 196.5,376.5 197.5,376.5 198.5,376.5C 198.5,373.5 198.5,370.5 198.5,367.5C 197.5,367.5 196.5,367.5 195.5,367.5C 195.5,366.167 195.5,364.833 195.5,363.5 Z"/></g>
<g><path style="opacity:0.463" fill="#000000" d="M 216.5,363.5 C 232.997,363.713 249.33,363.713 265.5,363.5C 267.167,363.667 268.833,363.833 270.5,364C 271.337,365.011 271.67,366.178 271.5,367.5C 270.178,367.33 269.011,367.663 268,368.5C 266.5,372.167 265,375.833 263.5,379.5C 261.389,380.848 259.555,380.515 258,378.5C 257,376.5 256,374.5 255,372.5C 253.833,374.833 252.667,377.167 251.5,379.5C 249.833,380.833 248.167,380.833 246.5,379.5C 244.64,375.917 242.973,372.251 241.5,368.5C 240.675,367.614 239.675,367.281 238.5,367.5C 238.5,368.5 238.5,369.5 238.5,370.5C 236.801,370.66 235.134,370.494 233.5,370C 232.692,368.294 231.359,367.461 229.5,367.5C 229.5,370.5 229.5,373.5 229.5,376.5C 230.833,376.5 232.167,376.5 233.5,376.5C 233.5,377.833 233.5,379.167 233.5,380.5C 229.445,380.824 225.445,380.491 221.5,379.5C 220.477,377.105 221.477,376.105 224.5,376.5C 224.5,373.5 224.5,370.5 224.5,367.5C 223.5,367.5 222.5,367.5 221.5,367.5C 221.5,368.5 221.5,369.5 221.5,370.5C 219.833,370.5 218.167,370.5 216.5,370.5C 216.5,368.167 216.5,365.833 216.5,363.5 Z M 249.5,366.5 C 251.558,367.933 251.392,369.599 249,371.5C 246.919,369.443 247.086,367.777 249.5,366.5 Z M 260.5,366.5 C 262.914,367.777 263.081,369.443 261,371.5C 259.481,369.861 259.314,368.194 260.5,366.5 Z"/></g>
<g><path style="opacity:0.461" fill="#000000" d="M 279.5,363.5 C 281.989,363.298 284.323,363.798 286.5,365C 288.374,368.581 290.374,372.081 292.5,375.5C 293.325,376.386 294.325,376.719 295.5,376.5C 295.5,377.833 295.5,379.167 295.5,380.5C 291.833,380.5 288.167,380.5 284.5,380.5C 284.227,378.549 284.893,377.049 286.5,376C 283.833,375.333 281.167,375.333 278.5,376C 280.107,377.049 280.773,378.549 280.5,380.5C 277.102,380.82 273.768,380.487 270.5,379.5C 270.167,378.833 269.833,378.167 269.5,377.5C 273.942,373.709 277.275,369.043 279.5,363.5 Z"/></g>
<g><path style="opacity:0.487" fill="#000000" d="M 296.5,363.5 C 302.925,363.13 309.258,363.63 315.5,365C 317.013,367.916 316.68,370.582 314.5,373C 316.839,374.989 318.173,377.489 318.5,380.5C 314.649,381.029 311.149,380.362 308,378.5C 306.475,379.72 304.641,380.387 302.5,380.5C 300.833,380.167 299.167,379.833 297.5,379.5C 296.128,377.38 296.795,376.38 299.5,376.5C 299.5,373.5 299.5,370.5 299.5,367.5C 298.5,367.5 297.5,367.5 296.5,367.5C 296.5,366.167 296.5,364.833 296.5,363.5 Z M 304.5,367.5 C 312.297,368.051 312.297,369.051 304.5,370.5C 304.5,369.5 304.5,368.5 304.5,367.5 Z M 304.5,374.5 C 306.75,374.181 308.75,374.681 310.5,376C 309.5,376.167 308.5,376.333 307.5,376.5C 305.97,376.36 304.97,375.693 304.5,374.5 Z"/></g>
<g><path style="opacity:0.454" fill="#000000" d="M 334.5,370.5 C 334.5,371.5 334.5,372.5 334.5,373.5C 336.144,373.286 337.644,373.62 339,374.5C 339.495,376.473 339.662,378.473 339.5,380.5C 333.132,380.83 326.798,380.496 320.5,379.5C 319.128,377.38 319.795,376.38 322.5,376.5C 322.817,373.428 322.484,370.428 321.5,367.5C 319.889,366.68 319.222,365.346 319.5,363.5C 325.842,363.334 332.175,363.5 338.5,364C 339.423,366.041 339.756,368.208 339.5,370.5C 337.833,370.5 336.167,370.5 334.5,370.5 Z M 334.5,370.5 C 332.5,370.5 330.5,370.5 328.5,370.5C 328.5,369.5 328.5,368.5 328.5,367.5C 330.5,367.5 332.5,367.5 334.5,367.5C 334.5,368.5 334.5,369.5 334.5,370.5 Z M 334.5,373.5 C 334.5,374.5 334.5,375.5 334.5,376.5C 332.5,376.5 330.5,376.5 328.5,376.5C 328.5,375.5 328.5,374.5 328.5,373.5C 330.5,373.5 332.5,373.5 334.5,373.5 Z"/></g>
<g><path style="opacity:0.359" fill="#000000" d="M 132.5,369.5 C 135.518,369.335 138.518,369.502 141.5,370C 142.337,371.011 142.67,372.178 142.5,373.5C 139.482,373.665 136.482,373.498 133.5,373C 132.663,371.989 132.33,370.822 132.5,369.5 Z"/></g>
<g><path style="opacity:0.407" fill="#000000" d="M 357.5,369.5 C 360.187,369.336 362.854,369.503 365.5,370C 366.337,371.011 366.67,372.178 366.5,373.5C 363.813,373.664 361.146,373.497 358.5,373C 357.663,371.989 357.33,370.822 357.5,369.5 Z"/></g>
<g><path style="opacity:0.601" fill="#96151d" d="M 24.5,345.5 C 37.5126,372.19 54.0126,396.523 74,418.5C 82.7297,426.735 91.563,434.735 100.5,442.5C 100.158,443.338 99.4916,443.672 98.5,443.5C 65.0608,417.402 40.3941,384.736 24.5,345.5 Z"/></g>
<g><path style="opacity:0.808" fill="#ed1c25" d="M 453.5,391.5 C 441.041,410.965 425.708,427.965 407.5,442.5C 408.795,439.207 408.795,435.874 407.5,432.5C 418.335,421.83 428.668,410.664 438.5,399C 437.829,398.014 437.829,396.847 438.5,395.5C 439.167,395.5 439.5,395.167 439.5,394.5C 440.338,394.158 440.672,393.492 440.5,392.5C 441.167,392.5 441.5,392.167 441.5,391.5C 442.167,391.5 442.5,391.167 442.5,390.5C 443.338,390.158 443.672,389.492 443.5,388.5C 444.167,388.5 444.5,388.167 444.5,387.5C 445.338,387.158 445.672,386.492 445.5,385.5C 446.167,385.5 446.5,385.167 446.5,384.5C 447.338,384.158 447.672,383.492 447.5,382.5C 448.167,382.5 448.5,382.167 448.5,381.5C 448.833,381.5 449.167,381.5 449.5,381.5C 450.496,381.586 451.329,381.252 452,380.5C 452.199,382.402 453.033,383.902 454.5,385C 451.517,386.487 451.183,388.654 453.5,391.5 Z"/></g>
<g><path style="opacity:0.004" fill="#000000" d="M 97.5,430.5 C 96.8333,429.167 96.8333,429.167 97.5,430.5 Z"/></g>
<g><path style="opacity:0.094" fill="#ef1523" d="M 382.5,431.5 C 382.217,432.289 381.717,432.956 381,433.5C 380.472,432.184 380.972,431.517 382.5,431.5 Z"/></g>
<g><path style="opacity:0.118" fill="#92141c" d="M 129.5,441.5 C 129.56,440.957 129.893,440.624 130.5,440.5C 138.212,445.356 146.212,449.69 154.5,453.5C 155.521,454.002 155.688,454.668 155,455.5C 146.264,451.216 137.764,446.55 129.5,441.5 Z"/></g>
<g><path style="opacity:0.836" fill="#df1b24" d="M 407.5,432.5 C 408.795,435.874 408.795,439.207 407.5,442.5C 392.493,455.676 375.826,466.342 357.5,474.5C 357.802,471.941 357.468,469.607 356.5,467.5C 374.679,457.575 391.679,445.908 407.5,432.5 Z"/></g>
<g><path style="opacity:0.484" fill="#8b141c" d="M 97.5,430.5 C 116.265,445.581 136.598,458.248 158.5,468.5C 158.5,468.833 158.5,469.167 158.5,469.5C 159.167,469.5 159.5,469.833 159.5,470.5C 159.5,471.167 159.833,471.5 160.5,471.5C 161.167,471.5 161.833,471.5 162.5,471.5C 162.5,472.167 162.833,472.5 163.5,472.5C 163.833,472.5 164.167,472.5 164.5,472.5C 164.5,473.167 164.833,473.5 165.5,473.5C 166.167,473.5 166.833,473.5 167.5,473.5C 167.5,474.167 167.833,474.5 168.5,474.5C 168.5,474.833 168.5,475.167 168.5,475.5C 152.352,470.614 138.352,463.114 126.5,453C 115.79,446.783 106.123,439.283 97.5,430.5 Z"/></g>
<g><path style="opacity:0.608" fill="#e11b23" d="M 429.5,405.5 C 403.885,436.599 372.218,459.432 334.5,474C 334.833,474.333 335.167,474.667 335.5,475C 334.584,475.278 333.918,475.778 333.5,476.5C 332.508,476.328 331.842,476.662 331.5,477.5C 330.209,477.263 329.209,477.596 328.5,478.5C 327.209,478.263 326.209,478.596 325.5,479.5C 324.209,479.263 323.209,479.596 322.5,480.5C 321.209,480.263 320.209,480.596 319.5,481.5C 318.209,481.263 317.209,481.596 316.5,482.5C 300.759,486.681 284.759,489.515 268.5,491C 255.763,491.941 243.096,491.607 230.5,490C 264.758,492.04 298.092,487.374 330.5,476C 329.655,474.442 330.321,473.442 332.5,473C 332.167,472.667 331.833,472.333 331.5,472C 363.524,457.447 392.024,436.947 417,410.5C 420.467,406.88 423.3,402.88 425.5,398.5C 426.167,398.5 426.5,398.167 426.5,397.5C 427.167,397.5 427.5,397.167 427.5,396.5C 427.987,395.527 428.487,394.527 429,393.5C 429.499,397.486 429.666,401.486 429.5,405.5 Z"/></g>
<g><path style="opacity:0.223" fill="#ce1a23" d="M 330.5,459.5 C 331.774,460.189 331.774,461.023 330.5,462C 322.663,464.959 314.663,466.959 306.5,468C 314.852,465.829 322.852,462.996 330.5,459.5 Z"/></g>
<g><path style="opacity:0.891" fill="#d51a23" d="M 356.5,467.5 C 357.468,469.607 357.802,471.941 357.5,474.5C 343.391,482.317 328.391,487.984 312.5,491.5C 312.702,489.05 312.369,486.717 311.5,484.5C 313.403,484.204 315.07,483.537 316.5,482.5C 317.791,482.737 318.791,482.404 319.5,481.5C 320.791,481.737 321.791,481.404 322.5,480.5C 323.791,480.737 324.791,480.404 325.5,479.5C 326.791,479.737 327.791,479.404 328.5,478.5C 329.791,478.737 330.791,478.404 331.5,477.5C 332.492,477.672 333.158,477.338 333.5,476.5C 341.268,473.784 348.934,470.784 356.5,467.5 Z"/></g>
<g><path style="opacity:0.409" fill="#b4161f" d="M 259.5,474.5 C 261.379,474.393 261.712,474.893 260.5,476C 254.833,476.667 249.167,476.667 243.5,476C 249.016,475.827 254.349,475.327 259.5,474.5 Z"/></g>
<g><path style="opacity:0.167" fill="#9f161e" d="M 158.5,469.5 C 158.5,469.167 158.5,468.833 158.5,468.5C 180.406,477.143 203.073,482.977 226.5,486C 217.053,485.986 207.72,484.819 198.5,482.5C 197.353,482.818 196.519,483.484 196,484.5C 186.576,482.025 177.409,479.025 168.5,475.5C 168.5,475.167 168.5,474.833 168.5,474.5C 167.833,474.5 167.5,474.167 167.5,473.5C 166.833,473.5 166.167,473.5 165.5,473.5C 164.833,473.5 164.5,473.167 164.5,472.5C 164.167,472.5 163.833,472.5 163.5,472.5C 162.833,472.5 162.5,472.167 162.5,471.5C 161.833,471.5 161.167,471.5 160.5,471.5C 159.833,471.5 159.5,471.167 159.5,470.5C 159.5,469.833 159.167,469.5 158.5,469.5 Z"/></g>
<g><path style="opacity:0.785" fill="#c61922" d="M 311.5,484.5 C 312.369,486.717 312.702,489.05 312.5,491.5C 300.379,495.191 288.045,497.857 275.5,499.5C 266.167,499.5 256.833,499.5 247.5,499.5C 248.334,498.252 249.667,497.585 251.5,497.5C 259.503,496.697 267.503,495.863 275.5,495C 265.85,495.148 256.183,495.314 246.5,495.5C 245.833,494.833 245.167,494.167 244.5,493.5C 267.285,493.694 289.618,490.694 311.5,484.5 Z"/></g>
<g><path style="opacity:0.628" fill="#b71821" d="M 100.5,442.5 C 142.524,476.519 190.524,493.519 244.5,493.5C 245.167,494.167 245.833,494.833 246.5,495.5C 231.438,495.48 216.605,493.813 202,490.5C 201.439,491.022 200.772,491.355 200,491.5C 162.515,482.837 128.682,466.837 98.5,443.5C 99.4916,443.672 100.158,443.338 100.5,442.5 Z"/></g>
</svg>
